<svg width="42" height="42" viewBox="0 0 42 42" fill="none" xmlns="http://www.w3.org/2000/svg">
<path fill-rule="evenodd" clip-rule="evenodd" d="M20.9208 0C9.53577 0 0.306396 9.22937 0.306396 20.6144C0.306396 31.9994 9.53577 41.2288 20.9208 41.2288C32.3058 41.2288 41.5352 31.9994 41.5352 20.6144C41.5352 9.22937 32.3058 0 20.9208 0ZM31.8459 17.3655C31.8545 17.3875 31.8619 17.4095 31.8838 17.4767C31.8905 17.5013 31.8951 17.5273 31.9071 17.5932C31.9124 17.6318 31.9151 17.6717 31.9151 17.7123V24.2026C31.9151 24.2426 31.9124 24.2825 31.8998 24.3617C31.8951 24.3877 31.8905 24.413 31.8692 24.4829L31.8685 24.4848C31.8614 24.5062 31.8537 24.5294 31.8252 24.5941C31.8159 24.6147 31.8059 24.6347 31.768 24.6972C31.756 24.7165 31.7434 24.7345 31.6981 24.7924C31.6835 24.8091 31.6681 24.8264 31.6162 24.8776C31.5989 24.893 31.5816 24.9076 31.5643 24.9216C31.5503 24.9322 31.537 24.9429 31.5077 24.9642L21.7723 31.4545C21.6185 31.557 21.4414 31.6083 21.2643 31.6083C21.0873 31.6083 20.9102 31.557 20.7564 31.4545L11.0216 24.9642C11.0194 24.9628 11.0172 24.9611 11.0118 24.9569C11.0047 24.9514 10.9917 24.9414 10.9651 24.9216C10.9471 24.9076 10.9298 24.893 10.8765 24.8417C10.8605 24.8264 10.8452 24.8091 10.7993 24.7525C10.786 24.7345 10.7733 24.7165 10.7347 24.6553C10.7234 24.6347 10.7134 24.6147 10.6835 24.5501C10.6742 24.5275 10.6668 24.5049 10.6455 24.4383C10.6389 24.413 10.6342 24.3877 10.6222 24.3225C10.6169 24.2825 10.6136 24.2426 10.6136 24.2026V17.7123C10.6136 17.6717 10.6169 17.6318 10.6296 17.5532C10.6342 17.5273 10.6389 17.5013 10.6595 17.4321C10.6668 17.4095 10.6742 17.3875 10.7035 17.3209C10.7134 17.2996 10.7234 17.2797 10.7614 17.2177C10.7733 17.1984 10.786 17.1798 10.8313 17.1226C10.8452 17.1052 10.8605 17.0886 10.9131 17.0373C10.9298 17.022 10.9471 17.0074 10.9651 16.9934L10.9651 16.9934C10.9784 16.9828 10.9917 16.9721 11.0216 16.9508L20.7564 10.4605C21.0646 10.2555 21.4647 10.2555 21.7723 10.4605L31.5077 16.9508C31.5104 16.9525 31.5129 16.9545 31.5207 16.9605C31.5284 16.9664 31.5412 16.9762 31.5643 16.9934C31.5816 17.0074 31.5989 17.022 31.6522 17.0726C31.6681 17.0886 31.6835 17.1052 31.7294 17.1618C31.7434 17.1798 31.756 17.1984 31.794 17.2603C31.8059 17.2797 31.8159 17.2996 31.8459 17.3655Z" fill="#CECECE"/>
<path fill-rule="evenodd" clip-rule="evenodd" d="M22.1793 12.9336L29.3512 17.7145L26.148 19.8573L22.1793 17.2026V12.9336ZM21.2641 23.1236L18.0269 20.9582L21.2641 18.7927L24.5019 20.9582L21.2641 23.1236ZM22.1793 24.7143V28.9832L29.3512 24.2024L26.148 22.0602L22.1793 24.7143ZM30.0842 22.4901L27.7943 20.9583L30.0842 19.4266V22.4901ZM13.1768 24.2024L20.3488 28.9832V24.7143L16.3807 22.0602L13.1768 24.2024ZM12.4438 19.4266L14.7344 20.9583L12.4438 22.4901V19.4266ZM20.3488 17.2026V12.9336L13.1768 17.7145L16.3807 19.8573L20.3488 17.2026Z" fill="#CECECE"/>
</svg>
