<svg width="47" height="46" viewBox="0 0 47 46" fill="none" xmlns="http://www.w3.org/2000/svg">
<path fill-rule="evenodd" clip-rule="evenodd" d="M23.5327 0C11.0669 0 0.961426 10.1055 0.961426 22.5713C0.961426 35.037 11.0669 45.1426 23.5327 45.1426C35.9985 45.1426 46.104 35.037 46.104 22.5713C46.104 10.1055 35.9985 0 23.5327 0ZM35.4949 19.0138C35.5043 19.0378 35.5124 19.0619 35.5364 19.1355C35.5435 19.1617 35.5485 19.1893 35.5609 19.2572L35.5619 19.263C35.5677 19.3053 35.5707 19.349 35.5707 19.3935V26.4999C35.5707 26.5437 35.5677 26.5874 35.5539 26.6741C35.5488 26.7025 35.5437 26.7302 35.5204 26.8068L35.5197 26.8089C35.5119 26.8323 35.5034 26.8578 35.4723 26.9285C35.4621 26.9511 35.4511 26.973 35.4096 27.0415C35.3965 27.0626 35.3826 27.0823 35.3331 27.1457C35.317 27.1639 35.3003 27.1829 35.2434 27.239C35.2245 27.2558 35.2055 27.2718 35.1866 27.2871C35.1829 27.2898 35.1794 27.2926 35.1756 27.2955C35.1634 27.3049 35.1491 27.3159 35.1246 27.3337L24.4649 34.4402C24.2965 34.5524 24.1027 34.6085 23.9088 34.6085C23.7149 34.6085 23.521 34.5524 23.3527 34.4402L12.6937 27.3337C12.6912 27.3322 12.6888 27.3304 12.683 27.3258C12.6751 27.3197 12.6609 27.3088 12.6317 27.2871C12.6121 27.2718 12.5931 27.2558 12.5348 27.1996C12.5173 27.1829 12.5005 27.1639 12.4502 27.102C12.4357 27.0823 12.4218 27.0626 12.3795 26.9956C12.3672 26.973 12.3562 26.9511 12.3234 26.8804C12.3132 26.8556 12.3052 26.8308 12.2819 26.7579C12.2746 26.7302 12.2695 26.7025 12.2564 26.6311C12.2505 26.5874 12.2469 26.5437 12.2469 26.4999V19.3935C12.2469 19.349 12.2505 19.3053 12.2644 19.2193C12.2695 19.1909 12.2746 19.1625 12.2972 19.0866C12.3052 19.0619 12.3132 19.0378 12.3453 18.9649C12.3562 18.9416 12.3672 18.9197 12.4087 18.852C12.4218 18.8308 12.4357 18.8104 12.4852 18.7477C12.5005 18.7288 12.5173 18.7106 12.5749 18.6544C12.5931 18.6377 12.6121 18.6216 12.6317 18.6063L12.6317 18.6063C12.6463 18.5947 12.6609 18.583 12.6937 18.5597L23.3527 11.4533C23.6901 11.2288 24.1282 11.2288 24.4649 11.4533L35.1246 18.5597C35.1271 18.5612 35.1295 18.5631 35.1354 18.5676C35.1432 18.5737 35.1574 18.5847 35.1866 18.6063C35.2055 18.6216 35.2245 18.6377 35.2828 18.6931C35.3003 18.7106 35.317 18.7288 35.3673 18.7907C35.3826 18.8104 35.3965 18.8308 35.438 18.8986C35.4511 18.9197 35.4621 18.9416 35.4949 19.0138Z" fill="white"/>
<path fill-rule="evenodd" clip-rule="evenodd" d="M24.9105 14.1616L32.7632 19.3963L29.256 21.7425L24.9105 18.8358V14.1616ZM23.9086 25.319L20.3642 22.948L23.9086 20.577L27.4538 22.948L23.9086 25.319ZM24.9105 27.0605V31.7346L32.7632 26.5L29.2559 24.1546L24.9105 27.0605ZM33.5661 24.6254L31.0588 22.9483L33.5661 21.2712V24.6254ZM15.0535 26.5L22.9063 31.7346V27.0605L18.5615 24.1546L15.0535 26.5ZM14.251 21.2712L16.759 22.9483L14.251 24.6254V21.2712ZM22.9062 18.8358V14.1616L15.0535 19.3963L18.5615 21.7425L22.9062 18.8358Z" fill="white"/>
</svg>
