<svg width="43" height="41" viewBox="0 0 43 41" fill="none" xmlns="http://www.w3.org/2000/svg">
<path fill-rule="evenodd" clip-rule="evenodd" d="M21.5357 0C10.1733 0 0.959473 9.213 0.959473 20.5787C0.959473 29.6711 6.85519 37.385 15.0307 40.1061C16.0591 40.2966 16.4366 39.6597 16.4366 39.1161C16.4366 38.6254 16.4175 37.0043 16.4087 35.2847C10.6843 36.5296 9.47645 32.8567 9.47645 32.8567C8.54045 30.478 7.19183 29.8456 7.19183 29.8456C5.32495 28.5683 7.33255 28.5945 7.33255 28.5945C9.39876 28.7394 10.4867 30.7152 10.4867 30.7152C12.3219 33.8613 15.3003 32.9518 16.4744 32.4259C16.6591 31.0962 17.1924 30.1877 17.7808 29.6741C13.2105 29.1538 8.4062 27.3892 8.4062 19.5039C8.4062 17.2571 9.21 15.4213 10.5262 13.9802C10.3126 13.4615 9.60831 11.3688 10.7256 8.53417C10.7256 8.53417 12.4534 7.98108 16.3855 10.6436C18.0268 10.1876 19.787 9.95897 21.5357 9.95113C23.2843 9.95897 25.0459 10.1876 26.6903 10.6436C30.6176 7.98108 32.3431 8.53417 32.3431 8.53417C33.4631 11.3688 32.7584 13.4615 32.5448 13.9802C33.8641 15.4213 34.6624 17.2571 34.6624 19.5039C34.6624 27.408 29.8489 29.1483 25.2671 29.6578C26.0051 30.2964 26.6627 31.5488 26.6627 33.4687C26.6627 36.2219 26.6389 38.438 26.6389 39.1161C26.6389 39.6638 27.0092 40.3055 28.0522 40.1034C36.2234 37.3792 42.1116 29.668 42.1116 20.5787C42.1116 9.213 32.8992 0 21.5357 0Z" fill="#CECECE"/>
<path fill-rule="evenodd" clip-rule="evenodd" d="M8.75296 29.5462C8.70764 29.6487 8.54682 29.6791 8.4003 29.6089C8.25106 29.5417 8.16724 29.4023 8.21563 29.2998C8.25992 29.1945 8.42109 29.1655 8.56999 29.2354C8.71957 29.3028 8.80475 29.4436 8.75296 29.5462Z" fill="#CECECE"/>
<path fill-rule="evenodd" clip-rule="evenodd" d="M9.58639 30.4759C9.48826 30.5669 9.29642 30.5246 9.16626 30.3808C9.03167 30.2373 9.00646 30.0455 9.10595 29.9531C9.20715 29.8621 9.39319 29.9047 9.52812 30.0482C9.66271 30.1934 9.68895 30.3839 9.58639 30.4759Z" fill="#CECECE"/>
<path fill-rule="evenodd" clip-rule="evenodd" d="M10.3979 31.6614C10.2718 31.749 10.0656 31.6669 9.93821 31.4839C9.81214 31.3009 9.81214 31.0814 9.94094 30.9935C10.0687 30.9056 10.2718 30.9847 10.4009 31.1663C10.5267 31.352 10.5267 31.5718 10.3979 31.6614Z" fill="#CECECE"/>
<path fill-rule="evenodd" clip-rule="evenodd" d="M11.5092 32.8066C11.3964 32.931 11.1562 32.8976 10.9804 32.7279C10.8005 32.562 10.7504 32.3265 10.8635 32.2021C10.9776 32.0774 11.2192 32.1125 11.3964 32.2808C11.5749 32.4464 11.6295 32.6836 11.5092 32.8066Z" fill="#CECECE"/>
<path fill-rule="evenodd" clip-rule="evenodd" d="M13.0426 33.4714C12.9928 33.6326 12.7615 33.7059 12.5284 33.6374C12.2957 33.5669 12.1434 33.3781 12.1904 33.2152C12.2388 33.053 12.4712 32.9766 12.7059 33.0499C12.9383 33.1201 13.091 33.3075 13.0426 33.4714Z" fill="#CECECE"/>
<path fill-rule="evenodd" clip-rule="evenodd" d="M14.7265 33.5943C14.7323 33.764 14.5347 33.9047 14.29 33.9075C14.044 33.9133 13.845 33.7759 13.8423 33.6089C13.8423 33.4375 14.0355 33.2982 14.2815 33.2941C14.5261 33.2893 14.7265 33.4256 14.7265 33.5943Z" fill="#CECECE"/>
<path fill-rule="evenodd" clip-rule="evenodd" d="M16.2933 33.3276C16.3226 33.4932 16.1526 33.6633 15.9096 33.7082C15.6708 33.7522 15.4496 33.65 15.4193 33.4857C15.3897 33.316 15.5628 33.1459 15.8013 33.102C16.0446 33.0597 16.2623 33.1592 16.2933 33.3276Z" fill="#CECECE"/>
</svg>
