<svg width="46" height="44" viewBox="0 0 46 44" fill="none" xmlns="http://www.w3.org/2000/svg">
<path fill-rule="evenodd" clip-rule="evenodd" d="M23.4709 0C11.0298 0 0.941406 10.0876 0.941406 22.5323C0.941406 32.4878 7.39679 40.934 16.3484 43.9135C17.4744 44.122 17.8878 43.4247 17.8878 42.8295C17.8878 42.2922 17.8669 40.5172 17.8572 38.6344C11.5895 39.9975 10.2669 35.9758 10.2669 35.9758C9.24204 33.3714 7.76539 32.6789 7.76539 32.6789C5.72129 31.2804 7.91948 31.3091 7.91948 31.3091C10.1818 31.4677 11.3731 33.6311 11.3731 33.6311C13.3825 37.0758 16.6436 36.0799 17.9292 35.5042C18.1314 34.0482 18.7153 33.0535 19.3596 32.4912C14.3555 31.9214 9.09505 29.9893 9.09505 21.3554C9.09505 18.8954 9.97514 16.8853 11.4163 15.3073C11.1824 14.7394 10.4113 12.448 11.6346 9.34433C11.6346 9.34433 13.5265 8.73874 17.8318 11.654C19.6289 11.1548 21.5563 10.9044 23.4709 10.8958C25.3855 10.9044 27.3144 11.1548 29.1148 11.654C33.4149 8.73874 35.3042 9.34433 35.3042 9.34433C36.5305 12.448 35.759 14.7394 35.5251 15.3073C36.9696 16.8853 37.8438 18.8954 37.8438 21.3554C37.8438 30.0098 32.5733 31.9154 27.5565 32.4733C28.3646 33.1725 29.0846 34.5438 29.0846 36.646C29.0846 39.6605 29.0585 42.087 29.0585 42.8295C29.0585 43.4291 29.464 44.1317 30.606 43.9105C39.5528 40.9277 46 32.4845 46 22.5323C46 10.0876 35.9131 0 23.4709 0Z" fill="white"/>
<path fill-rule="evenodd" clip-rule="evenodd" d="M9.47445 32.3507C9.42483 32.463 9.24874 32.4962 9.08832 32.4193C8.92492 32.3458 8.83314 32.1933 8.88612 32.081C8.93462 31.9657 9.11108 31.934 9.27411 32.0105C9.43789 32.0843 9.53116 32.2384 9.47445 32.3507Z" fill="white"/>
<path fill-rule="evenodd" clip-rule="evenodd" d="M10.3872 33.369C10.2798 33.4687 10.0698 33.4224 9.92725 33.2649C9.77988 33.1078 9.75228 32.8977 9.86121 32.7966C9.97201 32.6969 10.1757 32.7436 10.3234 32.9007C10.4708 33.0597 10.4995 33.2683 10.3872 33.369Z" fill="white"/>
<path fill-rule="evenodd" clip-rule="evenodd" d="M11.2754 34.6667C11.1373 34.7626 10.9116 34.6727 10.7721 34.4723C10.6341 34.272 10.6341 34.0317 10.7751 33.9354C10.915 33.8391 11.1373 33.9257 11.2787 34.1246C11.4164 34.3279 11.4164 34.5686 11.2754 34.6667Z" fill="white"/>
<path fill-rule="evenodd" clip-rule="evenodd" d="M12.4928 35.921C12.3693 36.0572 12.1063 36.0206 11.9137 35.8348C11.7167 35.653 11.6619 35.3952 11.7857 35.259C11.9107 35.1224 12.1753 35.1609 12.3693 35.3452C12.5648 35.5265 12.6245 35.7863 12.4928 35.921Z" fill="white"/>
<path fill-rule="evenodd" clip-rule="evenodd" d="M14.1714 36.6488C14.1169 36.8252 13.8636 36.9054 13.6084 36.8305C13.3536 36.7532 13.1869 36.5466 13.2383 36.3682C13.2913 36.1907 13.5457 36.1071 13.8028 36.1873C14.0572 36.2642 14.2244 36.4693 14.1714 36.6488Z" fill="white"/>
<path fill-rule="evenodd" clip-rule="evenodd" d="M16.0156 36.7835C16.0219 36.9694 15.8055 37.1235 15.5376 37.1265C15.2682 37.1328 15.0503 36.9824 15.0474 36.7996C15.0474 36.6118 15.2589 36.4592 15.5283 36.4547C15.7962 36.4495 16.0156 36.5988 16.0156 36.7835Z" fill="white"/>
<path fill-rule="evenodd" clip-rule="evenodd" d="M17.7311 36.4916C17.7632 36.6729 17.577 36.8592 17.311 36.9084C17.0495 36.9566 16.8073 36.8446 16.7741 36.6647C16.7417 36.4789 16.9312 36.2927 17.1924 36.2445C17.4588 36.1982 17.6972 36.3072 17.7311 36.4916Z" fill="white"/>
</svg>
