<svg width="36" height="18" viewBox="0 0 36 18" fill="none" xmlns="http://www.w3.org/2000/svg">
<path fill-rule="evenodd" clip-rule="evenodd" d="M16.125 13.7277H8.95833C6.00208 13.7277 3.58333 11.4112 3.58333 8.57983C3.58333 5.74849 6.00208 3.43193 8.95833 3.43193H16.125V0H8.95833C4.01333 0 0 3.84377 0 8.57983C0 13.3159 4.01333 17.1597 8.95833 17.1597H16.125V13.7277ZM26.875 0H19.7083V3.43193H26.875C29.8313 3.43193 32.25 5.74849 32.25 8.57983C32.25 11.4112 29.8313 13.7277 26.875 13.7277H19.7083V17.1597H26.875C31.82 17.1597 35.8333 13.3159 35.8333 8.57983C35.8333 3.84377 31.82 0 26.875 0ZM25.0833 6.86426H10.75V10.2959H25.0833V6.86426Z" fill="#333333"/>
</svg>
