<svg width="42" height="42" viewBox="0 0 42 42" fill="none" xmlns="http://www.w3.org/2000/svg">
<path fill-rule="evenodd" clip-rule="evenodd" d="M21.2677 0C9.88269 0 0.65332 9.22937 0.65332 20.6144C0.65332 31.9994 9.88269 41.2288 21.2677 41.2288C32.6527 41.2288 41.8821 31.9994 41.8821 20.6144C41.8821 9.22937 32.6527 0 21.2677 0ZM10.5496 17.0732H15.2213V31.1096H10.5496V17.0732ZM15.5287 12.7312C15.4984 11.355 14.5142 10.3067 12.9161 10.3067C11.3179 10.3067 10.2731 11.355 10.2731 12.7312C10.2731 14.079 11.287 15.1574 12.8554 15.1574H12.8853C14.5142 15.1574 15.5287 14.079 15.5287 12.7312ZM26.69 16.7438C29.7642 16.7438 32.0689 18.7504 32.0689 23.0617L32.0687 31.1098H27.3972V23.6003C27.3972 21.7141 26.7212 20.427 25.03 20.427C23.7394 20.427 22.9706 21.2947 22.633 22.1327C22.5095 22.4331 22.4791 22.8516 22.4791 23.2711V31.1102H17.8069C17.8069 31.1102 17.8685 18.3909 17.8069 17.0737H22.4791V19.0619C23.0992 18.1062 24.2097 16.7438 26.69 16.7438Z" fill="#CECECE"/>
</svg>
