<svg width="47" height="46" viewBox="0 0 47 46" fill="none" xmlns="http://www.w3.org/2000/svg">
<path fill-rule="evenodd" clip-rule="evenodd" d="M23.5522 0C11.0865 0 0.980957 10.1055 0.980957 22.5713C0.980957 35.037 11.0865 45.1426 23.5522 45.1426C36.018 45.1426 46.1235 35.037 46.1235 22.5713C46.1235 10.1055 36.018 0 23.5522 0ZM11.8166 18.6941H16.9318V34.063H11.8166V18.6941ZM17.2678 13.9396C17.2346 12.4327 16.157 11.2849 14.4071 11.2849C12.6573 11.2849 11.5133 12.4327 11.5133 13.9396C11.5133 15.4154 12.6235 16.5962 14.3407 16.5962H14.3734C16.157 16.5962 17.2678 15.4154 17.2678 13.9396ZM29.4891 18.3332C32.8551 18.3332 35.3785 20.5303 35.3785 25.2509L35.3783 34.063H30.2634V25.8406C30.2634 23.7753 29.5232 22.366 27.6715 22.366C26.2583 22.366 25.4166 23.3161 25.0469 24.2337C24.9116 24.5626 24.8784 25.0208 24.8784 25.4801V34.0634H19.7627C19.7627 34.0634 19.8301 20.1366 19.7627 18.6945H24.8784V20.8714C25.5573 19.8249 26.7733 18.3332 29.4891 18.3332Z" fill="white"/>
</svg>
