<svg width="42" height="42" viewBox="0 0 42 42" fill="none" xmlns="http://www.w3.org/2000/svg">
<path fill-rule="evenodd" clip-rule="evenodd" d="M20.6144 0C9.22937 0 0 9.22937 0 20.6144C0 31.9994 9.22937 41.2288 20.6144 41.2288C31.9994 41.2288 41.2288 31.9994 41.2288 20.6144C41.2288 9.22937 31.9994 0 20.6144 0ZM20.0402 17.4689L19.997 16.7556C19.8672 14.9068 21.0063 13.2182 22.8087 12.5631C23.472 12.3302 24.5967 12.3011 25.3321 12.5049C25.6205 12.5922 26.1685 12.8833 26.5578 13.1454L27.2643 13.6258L28.043 13.3783C28.4755 13.2473 29.0523 13.0289 29.3119 12.8833C29.557 12.7523 29.7733 12.6795 29.7733 12.7232C29.7733 12.9707 29.2398 13.815 28.7928 14.2808C28.1872 14.9359 28.3602 14.9941 29.5858 14.5574C30.3212 14.3099 30.3356 14.3099 30.1914 14.5865C30.1049 14.7321 29.6579 15.2416 29.1821 15.7074C28.3746 16.5081 28.3314 16.5954 28.3314 17.2651C28.3314 18.2986 27.8411 20.4531 27.3508 21.6322C26.4424 23.8449 24.4958 26.1304 22.5492 27.2804C19.8095 28.8963 16.1614 29.3039 13.0901 28.3577C12.0663 28.0374 10.3072 27.2222 10.3072 27.0766C10.3072 27.033 10.8407 26.9747 11.4896 26.9602C12.845 26.9311 14.2004 26.5526 15.354 25.8829L16.1326 25.4171L15.2386 25.1114C13.9697 24.6747 12.8306 23.6702 12.5422 22.724C12.4557 22.4183 12.4845 22.4038 13.292 22.4038L14.1283 22.3892L13.4218 22.0544C12.5854 21.6322 11.8212 20.9189 11.4463 20.1911C11.1723 19.667 10.8263 18.3423 10.9272 18.2404C10.9561 18.1967 11.2589 18.2841 11.6049 18.4005C12.5999 18.7645 12.7296 18.6771 12.1529 18.0657C11.0714 16.9594 10.7398 15.3144 11.2589 13.7568L11.504 13.058L12.4557 14.0042C14.4023 15.9112 16.695 17.0467 19.3193 17.3815L20.0402 17.4689Z" fill="#CECECE"/>
</svg>
